# xmcd CD database file
#
# Track frame offsets:
#	150
#	15027
#	29232
#	61180
#	75655
#	95327
#	110067
#	121067
#	136590
#	154555
#
# Disc length: 2282 seconds
#
# Revision: 0
# Processed by: cddbd v1.5.1PL2 Copyright (c) Steve Scherf et al.
# Submitted via: CDex 1.51
#
DISCID=6c08e80a
DTITLE=CCH Pounder - Smoke
DYEAR=2000
DGENRE=Jazz
TTITLE0=Chateau Marmont (Trip-Hop/Jazz)
TTITLE1=Calling You
TTITLE2=Mulholland Drive
TTITLE3=Smoke The Hookah (Jazz)
TTITLE4=No Woman No Cry
TTITLE5=Eleanor Rigby
TTITLE6=Busy Sidewalks
TTITLE7=Smoke The Hookah (HipHop)
TTITLE8=Rumblin' and Tumblin'
TTITLE9=Chateau Marmont
EXTD=YEAR: 2000
EXTT0=
EXTT1=
EXTT2=
EXTT3=
EXTT4=
EXTT5=
EXTT6=
EXTT7=
EXTT8=
EXTT9=
PLAYORDER=
